<svg width="163" height="22" viewBox="0 0 163 22" fill="none" xmlns="http://www.w3.org/2000/svg">
<g clip-path="url(#clip0_74_10058)">
<path d="M100.624 16.7751C99.9628 16.8013 99.3373 17.0873 98.8785 17.5733C98.4198 18.0593 98.1636 18.7074 98.1636 19.3817C98.1636 20.056 98.4198 20.7041 98.8785 21.1901C99.3373 21.6761 99.9628 21.9621 100.624 21.9882C101.285 21.9621 101.911 21.6761 102.369 21.1901C102.828 20.7041 103.084 20.056 103.084 19.3817C103.084 18.7074 102.828 18.0593 102.369 17.5733C101.911 17.0873 101.285 16.8013 100.624 16.7751Z" fill="#FA6615"/>
<path d="M127.746 5.56549C126.675 5.54782 125.612 5.74752 124.617 6.15295C123.623 6.55838 122.718 7.16142 121.954 7.92696C121.191 8.69249 120.585 9.60519 120.171 10.6119C119.757 11.6186 119.544 12.6991 119.544 13.7905C119.544 18.3887 123.146 21.9921 127.746 21.9921C128.806 21.9921 129.855 21.7793 130.834 21.366C131.814 20.9526 132.703 20.3468 133.453 19.583C134.202 18.8192 134.797 17.9125 135.202 16.9146C135.608 15.9167 135.817 14.8471 135.817 13.767C135.817 12.6869 135.608 11.6173 135.202 10.6194C134.797 9.62153 134.202 8.71481 133.453 7.95105C132.703 7.18728 131.814 6.58143 130.834 6.16809C129.855 5.75474 128.806 5.54199 127.746 5.54199V5.56549ZM127.746 18.2712C127.177 18.2683 126.615 18.1497 126.092 17.9223C125.569 17.6949 125.096 17.3633 124.7 16.9471C124.305 16.5308 123.995 16.0382 123.788 15.4981C123.582 14.9581 123.484 14.3816 123.499 13.8023C123.499 11.2564 125.363 9.26284 127.746 9.26284C130.129 9.26284 131.973 11.2564 131.973 13.8023C131.994 14.9661 131.56 16.0907 130.768 16.9287C129.975 17.7667 128.888 18.2496 127.746 18.2712Z" fill="#FA6615"/>
<path d="M162.996 17.7191V12.9289C162.996 8.49918 160.267 5.51859 156.205 5.51859C155.21 5.51822 154.231 5.76831 153.354 6.24662C152.477 6.72493 151.729 7.41664 151.178 8.26026C150.574 7.38428 149.767 6.67502 148.827 6.19641C147.888 5.71779 146.847 5.48486 145.797 5.51859C144.2 5.51574 142.664 6.14971 141.52 7.28501C141.49 6.87112 141.309 6.48385 141.01 6.20116C140.712 5.91847 140.32 5.76135 139.913 5.76142H138.084C138.058 5.7609 138.032 5.76568 138.008 5.77549C137.983 5.78529 137.961 5.79992 137.943 5.81852C137.924 5.83712 137.909 5.85932 137.899 5.88381C137.889 5.90831 137.884 5.93461 137.884 5.96117V20.7623C137.878 20.8852 137.897 21.0079 137.94 21.1228C137.983 21.2376 138.05 21.3421 138.135 21.4294C138.22 21.5167 138.321 21.5851 138.434 21.63C138.546 21.675 138.666 21.6956 138.787 21.6906H140.901C141.022 21.6987 141.143 21.6803 141.257 21.6367C141.37 21.5931 141.473 21.5252 141.559 21.4376C141.644 21.35 141.71 21.2448 141.753 21.129C141.795 21.0132 141.812 20.8895 141.804 20.7662L141.839 12.6861C142.012 10.9549 143.141 9.21593 145.298 9.21593C147.254 9.21593 148.518 10.8414 148.518 13.3598V20.7623C148.509 20.8833 148.525 21.0049 148.565 21.1192C148.605 21.2334 148.668 21.3378 148.75 21.4254C148.833 21.5131 148.932 21.582 149.043 21.6277C149.153 21.6734 149.272 21.6948 149.391 21.6906H151.535C151.656 21.6962 151.777 21.676 151.89 21.6313C152.002 21.5865 152.105 21.5183 152.19 21.4309C152.275 21.3435 152.342 21.2389 152.385 21.1237C152.429 21.0086 152.448 20.8855 152.442 20.7623V13.2501C152.442 10.8727 153.86 9.2081 155.901 9.2081C157.942 9.2081 159.122 10.7748 159.122 13.352V17.7191V19.9986C159.121 20.2206 159.164 20.4405 159.247 20.6458C159.33 20.851 159.452 21.0376 159.605 21.1948C159.759 21.3519 159.942 21.4766 160.143 21.5617C160.345 21.6468 160.56 21.6906 160.778 21.6906H162.815C162.869 21.6906 162.921 21.6687 162.959 21.6298C162.997 21.5908 163.019 21.538 163.019 21.483V17.7191H162.996Z" fill="#FA6615"/>
<path d="M116.169 5.93382C115.218 5.65614 114.231 5.52414 113.241 5.54215C108.552 5.54215 104.882 9.17291 104.882 13.8103C104.882 18.5612 108.398 22.0118 113.241 22.0118C114.677 22.0425 116.1 21.7243 117.392 21.0835C117.833 20.8792 118.257 20.6381 118.66 20.3629C118.719 20.3201 118.761 20.2568 118.778 20.1847C118.795 20.1127 118.786 20.0368 118.752 19.9712L117.949 18.4633C117.763 18.1172 117.456 17.8551 117.089 17.7295C116.723 17.6039 116.323 17.624 115.97 17.7857C115.713 17.9001 115.448 17.9943 115.178 18.0677C114.617 18.2096 114.041 18.2781 113.464 18.2714C110.797 18.2714 108.852 16.3914 108.852 13.8024C108.852 11.1313 110.797 9.263 113.579 9.263C114.083 9.26004 114.585 9.32189 115.074 9.44708C115.37 9.5301 115.658 9.63886 115.935 9.77217C116.29 9.94495 116.696 9.97478 117.071 9.85568C117.447 9.73657 117.764 9.47733 117.96 9.12983L118.814 7.62191C118.851 7.55465 118.863 7.47571 118.848 7.39997C118.832 7.32423 118.79 7.2569 118.729 7.21066C117.948 6.64934 117.084 6.21833 116.169 5.93382Z" fill="#FA6615"/>
<path d="M23.0526 5.56549C21.9818 5.54782 20.9182 5.74752 19.9239 6.15295C18.9295 6.55838 18.0243 7.16142 17.261 7.92696C16.4976 8.69249 15.8914 9.60519 15.4777 10.6119C15.0639 11.6186 14.8509 12.6991 14.8511 13.7905C14.8511 18.3887 18.4522 21.9921 23.0526 21.9921C24.1125 21.9921 25.1619 21.7793 26.1411 21.366C27.1203 20.9526 28.0101 20.3468 28.7595 19.583C29.509 18.8192 30.1035 17.9125 30.5091 16.9146C30.9146 15.9167 31.1234 14.8471 31.1234 13.767C31.1234 12.6869 30.9146 11.6173 30.5091 10.6194C30.1035 9.62153 29.509 8.71481 28.7595 7.95105C28.0101 7.18728 27.1203 6.58143 26.1411 6.16809C25.1619 5.75474 24.1125 5.54199 23.0526 5.54199V5.56549ZM23.0526 18.2712C22.4856 18.2657 21.9253 18.1452 21.4046 17.9166C20.8838 17.6881 20.4129 17.3561 20.0193 16.9401C19.6258 16.5241 19.3175 16.0324 19.1124 15.4936C18.9074 14.9549 18.8097 14.3799 18.825 13.8023C18.825 11.2564 20.689 9.26284 23.0526 9.26284C25.4162 9.26284 27.2802 11.2564 27.2802 13.8023C27.3007 14.9661 26.867 16.0907 26.0742 16.9287C25.2814 17.7667 24.1946 18.2496 23.0526 18.2712Z" fill="#FA6615"/>
<path d="M42.1536 5.56959C41.8985 5.53991 41.6417 5.52813 41.385 5.53434C40.5745 5.51498 39.769 5.66877 39.0204 5.98581C38.2717 6.30286 37.5965 6.77614 37.0382 7.37518C37.0128 6.95123 36.8297 6.55312 36.5262 6.26201C36.2226 5.9709 35.8216 5.80871 35.4048 5.80851H33.3987C33.3721 5.8085 33.3458 5.8139 33.3213 5.82438C33.2968 5.83486 33.2746 5.85021 33.256 5.86954C33.2374 5.88887 33.2227 5.91178 33.2129 5.93695C33.2031 5.96211 33.1983 5.98902 33.1988 6.01609V20.7781C33.1928 20.9009 33.2121 21.0237 33.2552 21.1385C33.2984 21.2534 33.3646 21.3578 33.4496 21.4451C33.5345 21.5325 33.6364 21.6008 33.7488 21.6458C33.8611 21.6907 33.9814 21.7114 34.102 21.7063H36.2158C36.3371 21.7145 36.4588 21.6961 36.5725 21.6522C36.6863 21.6083 36.7894 21.5401 36.8751 21.4521C36.9607 21.3641 37.0268 21.2584 37.0689 21.1421C37.1109 21.0258 37.128 20.9017 37.1189 20.7781V13.2815C37.1497 11.4094 38.3603 9.39619 40.9622 9.39619C41.2096 9.38944 41.4568 9.41845 41.6963 9.48236H41.7308C41.8533 9.51359 41.9808 9.51752 42.1049 9.49386C42.2289 9.4702 42.3465 9.41951 42.4495 9.34527C42.5447 9.2656 42.6217 9.16588 42.6755 9.05298C42.7292 8.94007 42.7583 8.81665 42.7608 8.69119L42.953 6.58793C42.969 6.46206 42.9603 6.3342 42.9273 6.21181C42.8943 6.08942 42.8377 5.97495 42.7608 5.87509C42.6853 5.78481 42.5925 5.71115 42.4881 5.65863C42.3837 5.6061 42.2699 5.57581 42.1536 5.56959Z" fill="#FA6615"/>
<path d="M63.7756 5.53418C59.1906 5.53418 55.8623 8.99653 55.8623 13.7592C55.8623 18.4592 59.4288 21.9842 64.1599 21.9842C66.4159 21.9842 68.3068 21.4163 69.7864 20.3001C69.9939 20.1473 70.1938 19.9907 70.3821 19.8262C70.4347 19.7774 70.4683 19.711 70.4767 19.6391C70.4852 19.5672 70.468 19.4945 70.4282 19.4345L69.4943 18.1028C69.2777 17.793 68.9544 17.5777 68.589 17.5001C68.2236 17.4224 67.8428 17.488 67.5227 17.6837C67.2865 17.8246 67.0398 17.9464 66.7848 18.048C66.0679 18.3576 65.2958 18.5123 64.5173 18.5023C62.2114 18.5023 60.3628 17.1471 59.8401 15.0909H70.3091C70.4266 15.094 70.5435 15.0731 70.653 15.0295C70.7624 14.9858 70.8622 14.9202 70.9464 14.8366C71.0306 14.753 71.0975 14.6531 71.1431 14.5427C71.1888 14.4323 71.2123 14.3138 71.2123 14.194V13.6417C71.2084 8.86728 68.153 5.53418 63.7756 5.53418ZM59.8862 12.0163C60.1061 11.117 60.6214 10.3216 61.3465 9.76221C62.0716 9.20285 62.9627 8.9133 63.8716 8.94169C64.7261 8.93514 65.5541 9.24348 66.2031 9.80991C66.8522 10.3763 67.2785 11.1627 67.4036 12.0241L59.8862 12.0163Z" fill="#FA6615"/>
<path d="M75.489 -9.63371e-05C75.0653 0.017596 74.6561 0.16197 74.3125 0.415026C73.9688 0.668082 73.7058 1.01863 73.5563 1.42297C73.4067 1.82731 73.3773 2.26755 73.4716 2.68883C73.5659 3.11011 73.7798 3.49378 74.0866 3.79202C74.3934 4.09026 74.7796 4.28988 75.1969 4.36599C75.6143 4.4421 76.0444 4.39134 76.4337 4.22004C76.8229 4.04873 77.1541 3.76445 77.3859 3.40265C77.6177 3.04084 77.7399 2.61751 77.7372 2.18541C77.7413 1.89446 77.6875 1.60568 77.5792 1.33645C77.4709 1.06722 77.3102 0.823087 77.107 0.61874C76.8915 0.410655 76.6373 0.248684 76.3594 0.142396C76.0815 0.0361066 75.7855 -0.0123454 75.489 -9.63371e-05Z" fill="#FA6615"/>
<path d="M75.8266 5.83201H73.7935C73.7395 5.83201 73.6877 5.85388 73.6495 5.89281C73.6113 5.93174 73.5898 5.98454 73.5898 6.03959V9.80352V17.7074V20.0026C73.5893 20.2261 73.6321 20.4476 73.7157 20.6543C73.7993 20.861 73.9221 21.0488 74.077 21.2071C74.232 21.3653 74.416 21.4909 74.6186 21.5766C74.8212 21.6622 75.0385 21.7063 75.2578 21.7063H77.3063C77.3606 21.7053 77.4124 21.6826 77.4505 21.643C77.4886 21.6035 77.51 21.5502 77.51 21.4948V7.5201C77.51 7.29609 77.4663 7.07431 77.3813 6.8677C77.2964 6.66108 77.172 6.47376 77.0153 6.31664C76.8586 6.15952 76.6729 6.03576 76.4688 5.95255C76.2647 5.86935 76.0464 5.82837 75.8266 5.83201Z" fill="#FA6615"/>
<path d="M55.0197 19.748C55.0039 19.6882 54.9846 19.6293 54.962 19.5718L54.6507 18.8903L54.5469 18.6553C54.4676 18.4739 54.3528 18.3109 54.2096 18.1762C54.0663 18.0415 53.8977 17.9381 53.7139 17.8721C53.5301 17.8061 53.335 17.779 53.1405 17.7924C52.9461 17.8059 52.7564 17.8596 52.583 17.9503L52.4754 17.9973C52.2963 18.0795 52.1113 18.1476 51.922 18.2009L51.7567 18.244C51.5042 18.3 51.2466 18.3289 50.9881 18.3302C49.2279 18.3302 48.4054 17.5468 48.4054 15.8666V9.29831H53.3517C53.4704 9.30131 53.5883 9.27905 53.6981 9.23294C53.8078 9.18682 53.9069 9.11788 53.989 9.03052C54.0712 8.94315 54.1345 8.83928 54.1749 8.72556C54.2154 8.61183 54.2322 8.49075 54.2241 8.37006V6.75638C54.2334 6.63558 54.2175 6.51414 54.1775 6.40006C54.1374 6.28598 54.0741 6.18184 53.9916 6.09451C53.9092 6.00718 53.8096 5.93863 53.6993 5.8934C53.589 5.84816 53.4705 5.82725 53.3517 5.83205H48.4016V4.54738V2.28353C48.4021 2.06461 48.3602 1.84773 48.2784 1.64532C48.1965 1.44291 48.0763 1.25895 47.9245 1.10396C47.7728 0.948972 47.5926 0.826008 47.3942 0.74211C47.1957 0.658211 46.983 0.615027 46.7682 0.615028H44.762C44.7355 0.614507 44.7091 0.61939 44.6844 0.629392C44.6597 0.639394 44.6372 0.654312 44.6182 0.673277C44.5992 0.692241 44.5842 0.71487 44.5739 0.739839C44.5636 0.764808 44.5583 0.791615 44.5583 0.818694V4.53171L44.5122 16.0703C44.5122 19.7284 46.7451 22.004 50.3463 22.004C51.2514 22.0186 52.153 21.8864 53.0173 21.6124H53.0365H53.0711L53.148 21.581L53.3517 21.4753L53.4247 21.4439L53.6323 21.3578C53.898 21.2477 54.155 21.1168 54.4009 20.9661L54.447 20.9348C54.4568 20.9235 54.4685 20.9142 54.4816 20.9074L54.6353 20.7899C54.6879 20.7486 54.7379 20.7041 54.7852 20.6567C54.8942 20.5562 54.9957 20.4475 55.0888 20.3316C55.1248 20.2859 55.1474 20.2309 55.1542 20.1727C55.161 20.1146 55.1517 20.0556 55.1273 20.0026L55.0197 19.748Z" fill="#FA6615"/>
<path d="M88.1416 5.56565C87.0818 5.56565 86.0323 5.7784 85.0531 6.19175C84.0739 6.60509 83.1841 7.21094 82.4347 7.97471C81.6852 8.73847 81.0908 9.64519 80.6852 10.6431C80.2796 11.641 80.0708 12.7106 80.0708 13.7907C80.0708 14.8708 80.2796 15.9404 80.6852 16.9383C81.0908 17.9362 81.6852 18.8429 82.4347 19.6067C83.1841 20.3704 84.0739 20.9763 85.0531 21.3896C86.0323 21.803 87.0818 22.0157 88.1416 22.0157C89.21 22.0377 90.2719 21.8415 91.2647 21.4386C92.2574 21.0358 93.161 20.4344 93.9222 19.6701C94.6833 18.9057 95.2866 17.9938 95.6964 16.9881C96.1063 15.9823 96.3144 14.9032 96.3085 13.8142C96.3124 12.7037 96.0981 11.6037 95.6783 10.579C95.0525 9.07513 94.0015 7.7952 92.6593 6.90235C91.3171 6.00949 89.7444 5.54416 88.1416 5.56565ZM88.1416 18.2714C87.4389 18.2737 86.7469 18.0955 86.1295 17.7532C85.5122 17.411 84.9895 16.9156 84.6097 16.313C84.1374 15.5632 83.889 14.6896 83.8948 13.7985C83.8873 12.895 84.1355 12.0083 84.6097 11.2448C84.9852 10.6361 85.5063 10.1346 86.1241 9.78728C86.7419 9.43995 87.4361 9.25821 88.1416 9.25908C90.5052 9.25908 92.3692 11.2527 92.3692 13.7985C92.3799 14.3751 92.279 14.9482 92.0724 15.4851C91.8657 16.022 91.5572 16.5121 91.1646 16.9275C90.7721 17.3428 90.303 17.6753 89.7843 17.9059C89.2656 18.1365 88.7074 18.2607 88.1416 18.2714Z" fill="#FA6615"/>
<path d="M8.21285 11.9379C5.9069 11.3857 5.09597 11.1115 5.09597 10.3164C5.09597 9.52135 5.79928 9.14143 6.90614 9.14143C8.16371 9.15126 9.40276 9.45121 10.5303 10.0188C10.6856 10.1001 10.8555 10.1482 11.0296 10.1601C11.2038 10.172 11.3785 10.1475 11.543 10.0881C11.7075 10.0286 11.8583 9.93554 11.9862 9.81451C12.1141 9.69348 12.2164 9.54706 12.2867 9.38426L12.8747 8.27976L13.259 7.59826C13.2905 7.53147 13.2977 7.45548 13.2794 7.38378C13.2611 7.31207 13.2185 7.2493 13.1591 7.20659C13.0707 7.14392 12.9785 7.093 12.8862 7.03425C11.0869 6.03998 9.06817 5.53038 7.02144 5.55375C3.13207 5.55375 0.587834 7.51209 0.587834 10.5514C0.587834 13.6848 3.50102 14.8245 6.11443 15.4786C8.15904 15.9643 8.89694 16.3403 8.89694 17.1706C8.89694 18.001 8.22822 18.4083 6.95226 18.4083C5.48739 18.4012 4.04651 18.0287 2.75543 17.3234C2.58304 17.227 2.39082 17.1733 2.19431 17.1667C1.9786 17.167 1.7664 17.2224 1.57708 17.3277C1.38776 17.4331 1.22736 17.5851 1.11052 17.7699L1.02212 17.9344L0.407202 19.0781L0.368769 19.1486L0.291904 19.2935L0.0459357 19.7556C0.0140786 19.822 0.00624856 19.8977 0.0238286 19.9693C0.0414087 20.041 0.0832684 20.104 0.142017 20.1473C0.230412 20.2061 0.32265 20.2609 0.414888 20.3157C2.25812 21.426 4.36151 22.0079 6.5026 21.9999C10.9915 21.9999 13.382 19.9084 13.382 16.8651C13.382 13.5242 10.7263 12.5568 8.21285 11.9379Z" fill="#FA6615"/>
</g>
<defs>
<clipPath id="clip0_74_10058">
<rect width="163" height="22" fill="white"/>
</clipPath>
</defs>
</svg>
