<svg width="60" height="34" viewBox="0 0 60 34" fill="none" xmlns="http://www.w3.org/2000/svg">
<g clip-path="url(#clip0_74_12093)">
<path d="M6.44902 17.2598C6.24902 17.1443 6.24902 16.8557 6.44902 16.7402L10.049 14.6617C10.249 14.5463 10.499 14.6906 10.499 14.9215L10.499 19.0785C10.499 19.3094 10.249 19.4537 10.049 19.3383L6.44902 17.2598Z" fill="#FA6615"/>
</g>
<path d="M9.99902 10C9.99902 7.79086 11.7899 6 13.999 6H46.999C49.2082 6 50.999 7.79086 50.999 10V24C50.999 26.2091 49.2082 28 46.999 28H13.999C11.7899 28 9.99902 26.2091 9.99902 24V10Z" fill="#FA6615"/>
<path d="M22.1794 14V19.22L17.9794 14H17.1594V21H18.1594V15.78L22.3594 21H23.1794V14H22.1794ZM27.4046 21.06C28.9946 21.06 30.1546 19.93 30.1546 18.35C30.1546 16.77 28.9946 15.65 27.4046 15.65C25.8146 15.65 24.6446 16.77 24.6446 18.35C24.6446 19.93 25.8146 21.06 27.4046 21.06ZM27.4046 20.22C26.3846 20.22 25.6146 19.48 25.6146 18.35C25.6146 17.22 26.3846 16.49 27.4046 16.49C28.4246 16.49 29.1846 17.22 29.1846 18.35C29.1846 19.48 28.4246 20.22 27.4046 20.22ZM35.0858 15.7L33.2258 19.95L31.4058 15.7H30.4058L32.7258 21H33.7058L36.0258 15.7H35.0858ZM39.0452 21.06C40.6352 21.06 41.7952 19.93 41.7952 18.35C41.7952 16.77 40.6352 15.65 39.0452 15.65C37.4552 15.65 36.2852 16.77 36.2852 18.35C36.2852 19.93 37.4552 21.06 39.0452 21.06ZM39.0452 20.22C38.0252 20.22 37.2552 19.48 37.2552 18.35C37.2552 17.22 38.0252 16.49 39.0452 16.49C40.0652 16.49 40.8252 17.22 40.8252 18.35C40.8252 19.48 40.0652 20.22 39.0452 20.22ZM43.1729 18.79H43.9329L44.1229 14H42.9929L43.1729 18.79ZM43.5629 21.06C43.9329 21.06 44.2029 20.77 44.2029 20.42C44.2029 20.06 43.9329 19.78 43.5629 19.78C43.1829 19.78 42.9029 20.06 42.9029 20.42C42.9029 20.77 43.1829 21.06 43.5629 21.06Z" fill="white"/>
<defs>
<clipPath id="clip0_74_12093">
<rect width="4" height="8" fill="white" transform="translate(5.99902 13)"/>
</clipPath>
</defs>
</svg>
