<svg width="33" height="32" viewBox="0 0 33 32" fill="none" xmlns="http://www.w3.org/2000/svg">
<circle cx="16.1426" cy="16" r="16" fill="#FA6615"/>
<g clip-path="url(#clip0_74_12125)">
<path d="M12.3049 19.8747C12.245 19.8146 12.2114 19.7332 12.2114 19.6484C12.2114 19.5636 12.245 19.4822 12.3049 19.4221L13.1345 18.0834C13.1573 18.0522 13.1871 18.0269 13.2215 18.0094C13.2559 17.9919 13.2939 17.9828 13.3325 17.9828C13.3711 17.9828 13.4092 17.9919 13.4436 18.0094C13.478 18.0269 13.5077 18.0522 13.5305 18.0834C14.3172 18.6803 15.277 19.0046 16.2645 19.0073C16.9244 19.0073 17.4524 18.7622 17.4524 18.1023C17.4524 17.4423 16.9433 17.2161 15.5669 16.7824C14.1904 16.3487 12.55 15.6888 12.55 13.841C12.55 11.9932 14.0584 10.7865 16.3211 10.7865C17.4773 10.7537 18.6158 11.0761 19.583 11.7103C19.7527 11.7103 19.7527 11.9555 19.583 12.1063L18.81 13.3885C18.7934 13.4264 18.7682 13.46 18.7363 13.4864C18.7045 13.5128 18.6668 13.5314 18.6264 13.5406C18.586 13.5497 18.5441 13.5493 18.5039 13.5392C18.4637 13.5292 18.4265 13.5098 18.3952 13.4827C17.7422 13.0826 16.9926 12.8675 16.2268 12.8605C15.4726 12.8605 14.9069 13.0679 14.9069 13.6713C14.9069 14.2747 15.4726 14.4066 16.7925 14.8403C18.1123 15.274 19.715 15.9151 19.715 17.9703C19.715 20.0255 18.3386 21.0625 16.0571 21.0625C14.7088 21.0971 13.3877 20.6789 12.3049 19.8747Z" fill="white"/>
<path d="M23.354 16.4807L29.2557 16.7635C29.3634 16.7741 29.4721 16.7619 29.5748 16.7278C29.6774 16.6937 29.7718 16.6384 29.8518 16.5656C29.9318 16.4927 29.9956 16.4039 30.0391 16.3048C30.0825 16.2057 30.1047 16.0986 30.1042 15.9904C30.1019 15.8831 30.0778 15.7773 30.0334 15.6796C29.989 15.5819 29.9252 15.4942 29.8458 15.4219C29.7665 15.3496 29.6732 15.2942 29.5718 15.259C29.4703 15.2238 29.3628 15.2097 29.2557 15.2174L23.2975 15.5191C22.9958 15.5191 22.7695 15.7453 22.7695 15.9904C22.7695 16.2356 22.9958 16.4241 23.2975 16.4618H23.3917L23.354 16.4807Z" fill="white"/>
<path d="M8.93015 16.4807L3.02847 16.7635C2.91988 16.7739 2.81032 16.7618 2.70664 16.7279C2.60297 16.6939 2.50742 16.6389 2.42598 16.5664C2.34455 16.4938 2.279 16.4052 2.23342 16.306C2.18784 16.2069 2.16323 16.0995 2.16113 15.9904C2.1659 15.8822 2.19229 15.7761 2.23876 15.6783C2.28522 15.5804 2.3508 15.4929 2.43165 15.4209C2.5125 15.3488 2.60697 15.2937 2.70948 15.2587C2.81198 15.2238 2.92044 15.2097 3.02847 15.2174L8.96787 15.5191H9.06215C9.18963 15.5229 9.31141 15.5727 9.405 15.6594C9.49858 15.746 9.55763 15.8636 9.57123 15.9904C9.55763 16.1172 9.49858 16.2348 9.405 16.3215C9.31141 16.4081 9.18963 16.458 9.06215 16.4618H8.94901L8.93015 16.4807Z" fill="white"/>
<path d="M16.6234 8.7879L16.9063 2.88621C16.914 2.77912 16.8998 2.6716 16.8646 2.57016C16.8295 2.46872 16.7741 2.37548 16.7018 2.29612C16.6295 2.21676 16.5418 2.15292 16.444 2.1085C16.3463 2.06409 16.2405 2.04001 16.1332 2.03773C16.025 2.03721 15.9179 2.05942 15.8188 2.10289C15.7198 2.14637 15.6309 2.21016 15.5581 2.29013C15.4852 2.37011 15.4299 2.46449 15.3958 2.56717C15.3617 2.66985 15.3496 2.77853 15.3601 2.88621L15.643 8.84446C15.643 9.14615 15.8692 9.37241 16.1143 9.37241C16.3595 9.37241 16.548 9.14615 16.5857 8.84446L16.6234 8.7879Z" fill="white"/>
<path d="M16.6234 23.212L16.9062 29.1137C16.9138 29.2217 16.8998 29.3302 16.8648 29.4327C16.8299 29.5352 16.7748 29.6297 16.7027 29.7105C16.6306 29.7914 16.5431 29.8569 16.4453 29.9034C16.3475 29.9499 16.2413 29.9762 16.1331 29.981C16.0241 29.9789 15.9166 29.9543 15.8175 29.9087C15.7184 29.8632 15.6298 29.7976 15.5572 29.7162C15.4846 29.6347 15.4296 29.5392 15.3957 29.4355C15.3618 29.3318 15.3497 29.2223 15.3601 29.1137L15.6429 23.1743V23.08C15.6467 22.9525 15.6966 22.8307 15.7832 22.7372C15.8699 22.6436 15.9875 22.5845 16.1143 22.5709C16.2411 22.5845 16.3587 22.6436 16.4453 22.7372C16.532 22.8307 16.5818 22.9525 16.5857 23.08V23.212H16.6234Z" fill="white"/>
<path d="M21.5823 11.2391L25.9567 7.26066C26.0374 7.18817 26.1019 7.09951 26.1461 7.00043C26.1903 6.90135 26.2131 6.79408 26.2131 6.68559C26.2131 6.57711 26.1903 6.46984 26.1461 6.37076C26.1019 6.27167 26.0374 6.18299 25.9567 6.11049C25.8827 6.03232 25.7935 5.97006 25.6946 5.92751C25.5958 5.88496 25.4892 5.86304 25.3816 5.86304C25.2739 5.86304 25.1674 5.88496 25.0686 5.92751C24.9697 5.97006 24.8805 6.03232 24.8065 6.11049L20.7903 10.5226C20.7055 10.619 20.6587 10.743 20.6587 10.8715C20.6587 10.9999 20.7055 11.1239 20.7903 11.2203C20.8867 11.3051 21.0107 11.3519 21.1392 11.3519C21.2676 11.3519 21.3916 11.3051 21.488 11.2203L21.5823 11.2391Z" fill="white"/>
<path d="M11.3823 21.4396L7.42272 25.814C7.35022 25.8947 7.26155 25.9593 7.16247 26.0034C7.06339 26.0476 6.95612 26.0705 6.84763 26.0705C6.73915 26.0705 6.63187 26.0476 6.53279 26.0034C6.43371 25.9593 6.34505 25.8947 6.27255 25.814C6.19185 25.7415 6.1273 25.6529 6.08312 25.5538C6.03894 25.4547 6.01611 25.3474 6.01611 25.2389C6.01611 25.1304 6.03894 25.0232 6.08312 24.9241C6.1273 24.825 6.19185 24.7364 6.27255 24.6639L10.6847 20.6665C10.7811 20.5817 10.9051 20.5349 11.0335 20.5349C11.1619 20.5349 11.2859 20.5817 11.3823 20.6665C11.4672 20.7629 11.514 20.887 11.514 21.0154C11.514 21.1438 11.4672 21.2678 11.3823 21.3642V21.4396Z" fill="white"/>
<path d="M11.3823 10.5604L7.42272 6.18596C7.34871 6.10779 7.25955 6.04553 7.16067 6.00298C7.06179 5.96043 6.95528 5.93848 6.84763 5.93848C6.73999 5.93848 6.63347 5.96043 6.53459 6.00298C6.43571 6.04553 6.34655 6.10779 6.27255 6.18596C6.19185 6.25846 6.1273 6.34714 6.08312 6.44622C6.03894 6.5453 6.01611 6.65255 6.01611 6.76103C6.01611 6.86952 6.03894 6.97679 6.08312 7.07587C6.1273 7.17495 6.19185 7.26363 6.27255 7.33613L10.6847 11.3523C10.7811 11.4371 10.9051 11.4839 11.0335 11.4839C11.1619 11.4839 11.2859 11.4371 11.3823 11.3523C11.4672 11.2559 11.514 11.1319 11.514 11.0035C11.514 10.875 11.4672 10.751 11.3823 10.6546V10.5604Z" fill="white"/>
<path d="M21.5823 20.7609L25.9567 24.7205C26.0374 24.793 26.1019 24.8817 26.1461 24.9808C26.1903 25.0798 26.2131 25.1871 26.2131 25.2956C26.2131 25.4041 26.1903 25.5114 26.1461 25.6104C26.1019 25.7095 26.0374 25.7982 25.9567 25.8707C25.8842 25.9514 25.7955 26.0159 25.6964 26.0601C25.5973 26.1043 25.4901 26.1271 25.3816 26.1271C25.2731 26.1271 25.1658 26.1043 25.0668 26.0601C24.9677 26.0159 24.879 25.9514 24.8065 25.8707L20.7903 21.4586C20.7055 21.3622 20.6587 21.2382 20.6587 21.1097C20.6587 20.9813 20.7055 20.8573 20.7903 20.7609C20.8867 20.6761 21.0107 20.6293 21.1392 20.6293C21.2676 20.6293 21.3916 20.6761 21.488 20.7609H21.5823Z" fill="white"/>
<path d="M12.0604 7.01562C12.3415 7.01562 12.5695 6.78769 12.5695 6.50653C12.5695 6.22536 12.3415 5.99744 12.0604 5.99744C11.7792 5.99744 11.5513 6.22536 11.5513 6.50653C11.5513 6.78769 11.7792 7.01562 12.0604 7.01562Z" fill="white"/>
<path d="M6.53643 12.6533C6.8176 12.6533 7.04553 12.4254 7.04553 12.1442C7.04553 11.8631 6.8176 11.6351 6.53643 11.6351C6.25527 11.6351 6.02734 11.8631 6.02734 12.1442C6.02734 12.4254 6.25527 12.6533 6.53643 12.6533Z" fill="white"/>
<path d="M20.2249 7.01562C20.5061 7.01562 20.734 6.78769 20.734 6.50653C20.734 6.22536 20.5061 5.99744 20.2249 5.99744C19.9437 5.99744 19.7158 6.22536 19.7158 6.50653C19.7158 6.78769 19.9437 7.01562 20.2249 7.01562Z" fill="white"/>
<path d="M25.7493 12.6533C26.0305 12.6533 26.2584 12.4254 26.2584 12.1442C26.2584 11.8631 26.0305 11.6351 25.7493 11.6351C25.4682 11.6351 25.2402 11.8631 25.2402 12.1442C25.2402 12.4254 25.4682 12.6533 25.7493 12.6533Z" fill="white"/>
<path d="M12.0604 25.946C12.3415 25.946 12.5695 25.7181 12.5695 25.4369C12.5695 25.1558 12.3415 24.9279 12.0604 24.9279C11.7792 24.9279 11.5513 25.1558 11.5513 25.4369C11.5513 25.7181 11.7792 25.946 12.0604 25.946Z" fill="white"/>
<path d="M6.53643 20.3083C6.8176 20.3083 7.04553 20.0804 7.04553 19.7993C7.04553 19.5181 6.8176 19.2902 6.53643 19.2902C6.25527 19.2902 6.02734 19.5181 6.02734 19.7993C6.02734 20.0804 6.25527 20.3083 6.53643 20.3083Z" fill="white"/>
<path d="M20.2249 25.946C20.5061 25.946 20.734 25.7181 20.734 25.4369C20.734 25.1558 20.5061 24.9279 20.2249 24.9279C19.9437 24.9279 19.7158 25.1558 19.7158 25.4369C19.7158 25.7181 19.9437 25.946 20.2249 25.946Z" fill="white"/>
<path d="M25.7493 20.3083C26.0305 20.3083 26.2584 20.0804 26.2584 19.7993C26.2584 19.5181 26.0305 19.2902 25.7493 19.2902C25.4682 19.2902 25.2402 19.5181 25.2402 19.7993C25.2402 20.0804 25.4682 20.3083 25.7493 20.3083Z" fill="white"/>
</g>
<defs>
<clipPath id="clip0_74_12125">
<rect width="28" height="28" fill="white" transform="translate(2.14258 2)"/>
</clipPath>
</defs>
</svg>
